<?xml version="1.0" encoding="UTF-8" standalone="no"?>
<!DOCTYPE svg PUBLIC "-//W3C//DTD SVG 1.1//EN" "http://www.w3.org/Graphics/SVG/1.1/DTD/svg11.dtd">
<svg width="100%" height="100%" viewBox="0 0 9 5" version="1.1" xmlns="http://www.w3.org/2000/svg" xmlns:xlink="http://www.w3.org/1999/xlink" xml:space="preserve" xmlns:serif="http://www.serif.com/" style="fill-rule:evenodd;clip-rule:evenodd;stroke-linejoin:round;stroke-miterlimit:2;">
    <g transform="matrix(1,0,0,1,-1339,-56.9096)">
        <g transform="matrix(1,0,0,1,-131,-22.9336)">
            <g transform="matrix(1,0,0,1,1470,79.8418)">
                <path d="M0,0.546C0,0.401 0.058,0.262 0.162,0.16C0.377,-0.051 0.726,-0.051 0.941,0.16L4.5,3.682L8.059,0.16C8.274,-0.051 8.623,-0.051 8.838,0.16C8.942,0.262 9,0.401 9,0.546C9,0.691 8.942,0.83 8.838,0.932L4.89,4.84C4.675,5.052 4.325,5.052 4.11,4.84L0.162,0.932C0.058,0.83 0,0.691 -0,0.546Z" style="fill:white;fill-rule:nonzero;"/>
            </g>
        </g>
    </g>
</svg>
